<svg width="800" height="450" xmlns="http://www.w3.org/2000/svg">
  <defs>
    <linearGradient id="grad4" x1="0%" y1="0%" x2="100%" y2="100%">
      <stop offset="0%" style="stop-color:#10b981;stop-opacity:0.3" />
      <stop offset="100%" style="stop-color:#059669;stop-opacity:0.1" />
    </linearGradient>
  </defs>
  
  <!-- Background -->
  <rect width="800" height="450" fill="#0a0a0a"/>
  
  <!-- Grid pattern -->
  <defs>
    <pattern id="grid4" width="40" height="40" patternUnits="userSpaceOnUse">
      <path d="M 40 0 L 0 0 0 40" fill="none" stroke="#1a1a1a" stroke-width="1"/>
    </pattern>
  </defs>
  <rect width="800" height="450" fill="url(#grid4)"/>
  
  <!-- Main content area -->
  <rect x="100" y="50" width="600" height="350" rx="12" fill="url(#grad4)" stroke="#10b981" stroke-width="2"/>
  
  <!-- Title -->
  <text x="400" y="100" font-family="Arial, sans-serif" font-size="32" font-weight="bold" fill="#10b981" text-anchor="middle">Secure Computation</text>
  
  <!-- TEE Container -->
  <rect x="250" y="140" width="300" height="200" rx="12" fill="#1a1a1a" stroke="#10b981" stroke-width="3"/>
  
  <!-- Shield overlay -->
  <path d="M 400 160 L 370 180 L 370 230 L 400 250 L 430 230 L 430 180 Z" fill="#10b981" opacity="0.3" stroke="#10b981" stroke-width="2"/>
  
  <!-- CPU icon -->
  <rect x="360" y="260" width="80" height="60" rx="4" fill="#1a1a1a" stroke="#10b981" stroke-width="2"/>
  <rect x="370" y="270" width="60" height="40" rx="2" fill="#10b981" opacity="0.2"/>
  <line x1="380" y1="280" x2="420" y2="280" stroke="#10b981" stroke-width="1"/>
  <line x1="380" y1="290" x2="420" y2="290" stroke="#10b981" stroke-width="1"/>
  <line x1="380" y1="300" x2="420" y2="300" stroke="#10b981" stroke-width="1"/>
  
  <!-- Status indicators -->
  <circle cx="280" cy="170" r="5" fill="#10b981"/>
  <text x="295" y="175" font-family="monospace" font-size="12" fill="#10b981">TEE Active</text>
  
  <circle cx="280" cy="200" r="5" fill="#10b981"/>
  <text x="295" y="205" font-family="monospace" font-size="12" fill="#10b981">Isolated Process</text>
  
  <circle cx="280" cy="230" r="5" fill="#10b981"/>
  <text x="295" y="235" font-family="monospace" font-size="12" fill="#10b981">Secure Execution</text>
  
  <!-- Data flow -->
  <text x="400" y="365" font-family="monospace" font-size="12" fill="#6b7280" text-anchor="middle">Trusted Execution Environment</text>
</svg>
